<svg width="32" height="32" viewBox="0 0 32 32" fill="none" xmlns="http://www.w3.org/2000/svg">
<rect x="0.5" y="0.5" width="31" height="31" rx="15.5" fill="white" fill-opacity="0.2"/>
<rect x="0.5" y="0.5" width="31" height="31" rx="15.5" stroke="white"/>
<path d="M24 15.9996C24.0001 17.8833 23.3355 19.7066 22.1233 21.1484C20.911 22.5902 19.2289 23.5579 17.3731 23.8813C15.5174 24.2046 13.6071 23.8627 11.9787 22.9158C10.3503 21.969 9.10819 20.4779 8.47124 18.7051C7.83428 16.9324 7.8433 14.9918 8.4967 13.225C9.1501 11.4583 10.406 9.97878 12.0431 9.04709C13.6803 8.1154 15.5937 7.79129 17.4463 8.13184C19.299 8.4724 20.972 9.45577 22.1708 10.9088C22.2303 10.9757 22.2758 11.054 22.3043 11.1389C22.3329 11.2238 22.3441 11.3136 22.3372 11.4029C22.3303 11.4923 22.3055 11.5793 22.2642 11.6588C22.2229 11.7383 22.1661 11.8087 22.097 11.8657C22.0279 11.9228 21.948 11.9653 21.8621 11.9908C21.7762 12.0162 21.6861 12.0241 21.5971 12.014C21.5081 12.0039 21.422 11.9759 21.344 11.9318C21.2661 11.8876 21.1978 11.8282 21.1433 11.7571C20.1628 10.5682 18.8007 9.75571 17.2887 9.45786C15.7766 9.16001 14.2081 9.39519 12.85 10.1234C11.4918 10.8516 10.4279 12.0278 9.83913 13.452C9.25041 14.8762 9.17328 16.4604 9.62086 17.935C10.0684 19.4097 11.0131 20.6837 12.2941 21.5404C13.5751 22.3971 15.1133 22.7835 16.6471 22.634C18.1809 22.4844 19.6155 21.8081 20.7069 20.7201C21.7983 19.6321 22.479 18.1996 22.6333 16.6662H16C15.8232 16.6662 15.6536 16.596 15.5286 16.471C15.4036 16.346 15.3333 16.1764 15.3333 15.9996C15.3333 15.8228 15.4036 15.6532 15.5286 15.5282C15.6536 15.4032 15.8232 15.3329 16 15.3329H23.3333C23.5101 15.3329 23.6797 15.4032 23.8047 15.5282C23.9298 15.6532 24 15.8228 24 15.9996Z" fill="white"/>
</svg>
