<svg width="32" height="32" viewBox="0 0 32 32" fill="none" xmlns="http://www.w3.org/2000/svg">
<rect x="0.5" y="0.5" width="31" height="31" rx="15.5" fill="white" fill-opacity="0.2"/>
<rect x="0.5" y="0.5" width="31" height="31" rx="15.5" stroke="white"/>
<path d="M25.3273 11.386C25.2801 11.2718 25.2 11.1742 25.0972 11.1055C24.9944 11.0368 24.8736 11.0001 24.75 11.0001H22.3727C22.0403 10.4346 21.5672 9.96473 20.9995 9.63617C20.4318 9.30761 19.7887 9.13154 19.1328 9.12507C18.6442 9.11866 18.1591 9.21005 17.7063 9.39386C17.2535 9.57767 16.842 9.85019 16.4961 10.1954C16.1401 10.5448 15.8575 10.9618 15.6649 11.422C15.4724 11.8822 15.3738 12.3762 15.375 12.8751V13.3509C12.2297 12.5212 9.65703 9.96257 9.62969 9.93523C9.54584 9.85063 9.43956 9.79176 9.32337 9.76555C9.20719 9.73933 9.08593 9.74686 8.97387 9.78724C8.86182 9.82763 8.76364 9.8992 8.6909 9.99351C8.61816 10.0878 8.57388 10.201 8.56328 10.3196C8.22656 14.0532 9.31094 16.5516 10.282 17.9899C10.7555 18.7009 11.3315 19.338 11.9914 19.8805C10.8016 21.2501 8.92812 21.9696 8.90781 21.9774C8.81962 22.0104 8.74003 22.063 8.675 22.1311C8.60996 22.1992 8.56116 22.2811 8.53223 22.3708C8.50331 22.4604 8.49502 22.5554 8.50797 22.6487C8.52092 22.7419 8.55478 22.8311 8.60703 22.9094C8.66562 22.9969 8.9 23.304 9.47266 23.5907C10.1805 23.9454 11.1156 24.1251 12.25 24.1251C17.7711 24.1251 22.3844 19.8735 22.8555 14.4032L25.1922 12.0673C25.2796 11.9798 25.339 11.8684 25.3631 11.7471C25.3872 11.6259 25.3747 11.5002 25.3273 11.386ZM21.8117 13.6837C21.7046 13.7911 21.6401 13.9338 21.6305 14.0852C21.3125 19.0141 17.1937 22.8751 12.25 22.8751C11.425 22.8751 10.8437 22.7657 10.4359 22.6344C11.3352 22.1462 12.5891 21.3063 13.3953 20.0969C13.4426 20.0258 13.4749 19.9458 13.49 19.8617C13.5052 19.7777 13.503 19.6914 13.4835 19.6082C13.464 19.525 13.4277 19.4467 13.3768 19.3782C13.3259 19.3096 13.2615 19.2522 13.1875 19.2094C13.1508 19.1884 9.75703 17.1516 9.75 11.7094C11 12.7251 13.2852 14.3009 15.8961 14.7399C15.9856 14.755 16.0773 14.7504 16.1648 14.7265C16.2523 14.7026 16.3336 14.6599 16.403 14.6014C16.4723 14.5428 16.5281 14.4699 16.5665 14.3877C16.6048 14.3054 16.6248 14.2158 16.625 14.1251V12.8751C16.6243 12.5417 16.6903 12.2115 16.8191 11.904C16.9479 11.5965 17.1369 11.3178 17.375 11.0844C17.6032 10.8558 17.875 10.6752 18.1743 10.5533C18.4735 10.4315 18.7941 10.3709 19.1172 10.3751C20.1062 10.3876 21.0305 10.9907 21.4172 11.8759C21.4659 11.9871 21.5461 12.0818 21.6478 12.1483C21.7495 12.2147 21.8683 12.2501 21.9898 12.2501H23.2398L21.8117 13.6837Z" fill="white"/>
</svg>
