<svg width="32" height="32" viewBox="0 0 32 32" fill="none" xmlns="http://www.w3.org/2000/svg">
<rect x="0.5" y="0.5" width="31" height="31" rx="15.5" fill="white" fill-opacity="0.2"/>
<rect x="0.5" y="0.5" width="31" height="31" rx="15.5" stroke="white"/>
<path d="M16 7.875C14.393 7.875 12.8221 8.35152 11.486 9.24431C10.1498 10.1371 9.10844 11.406 8.49348 12.8907C7.87852 14.3753 7.71762 16.009 8.03112 17.5851C8.34463 19.1612 9.11846 20.6089 10.2548 21.7452C11.3911 22.8815 12.8388 23.6554 14.4149 23.9689C15.991 24.2824 17.6247 24.1215 19.1093 23.5065C20.594 22.8916 21.8629 21.8502 22.7557 20.514C23.6485 19.1779 24.125 17.607 24.125 16C24.1227 13.8458 23.266 11.7805 21.7427 10.2573C20.2195 8.73403 18.1542 7.87727 16 7.875ZM16.625 22.8461V17.875H18.5C18.6658 17.875 18.8247 17.8092 18.9419 17.6919C19.0592 17.5747 19.125 17.4158 19.125 17.25C19.125 17.0842 19.0592 16.9253 18.9419 16.8081C18.8247 16.6908 18.6658 16.625 18.5 16.625H16.625V14.75C16.625 14.4185 16.7567 14.1005 16.9911 13.8661C17.2255 13.6317 17.5435 13.5 17.875 13.5H19.125C19.2908 13.5 19.4497 13.4342 19.5669 13.3169C19.6842 13.1997 19.75 13.0408 19.75 12.875C19.75 12.7092 19.6842 12.5503 19.5669 12.4331C19.4497 12.3158 19.2908 12.25 19.125 12.25H17.875C17.212 12.25 16.5761 12.5134 16.1072 12.9822C15.6384 13.4511 15.375 14.087 15.375 14.75V16.625H13.5C13.3342 16.625 13.1753 16.6908 13.0581 16.8081C12.9409 16.9253 12.875 17.0842 12.875 17.25C12.875 17.4158 12.9409 17.5747 13.0581 17.6919C13.1753 17.8092 13.3342 17.875 13.5 17.875H15.375V22.8461C13.6131 22.6853 11.9811 21.8514 10.8183 20.5179C9.65556 19.1845 9.05162 17.4541 9.13212 15.6867C9.21263 13.9194 9.97137 12.2511 11.2505 11.0288C12.5297 9.80661 14.2308 9.12456 16 9.12456C17.7692 9.12456 19.4703 9.80661 20.7495 11.0288C22.0286 12.2511 22.7874 13.9194 22.8679 15.6867C22.9484 17.4541 22.3444 19.1845 21.1817 20.5179C20.0189 21.8514 18.3869 22.6853 16.625 22.8461Z" fill="white"/>
</svg>
